<?xml version="1.0" standalone="no"?><!DOCTYPE svg PUBLIC "-//W3C//DTD SVG 1.1//EN" "http://www.w3.org/Graphics/SVG/1.1/DTD/svg11.dtd"><svg t="1735776676759" class="icon" viewBox="0 0 1024 1024" version="1.1" xmlns="http://www.w3.org/2000/svg" p-id="3340" xmlns:xlink="http://www.w3.org/1999/xlink" width="200" height="200"><path d="M900.78368 678.528L531.98368 67.04c-15.2-26.272-27.616-29.632-53.888-14.432-26.336 15.2-29.664 27.584-14.464 53.92l341.44 627.232c15.2 26.304 33.408 8.096 59.68-7.136 26.368-15.168 51.232-21.792 36.032-48.096zM998.35168 792.288a82.88 82.88 0 0 0-143.52 82.88c36.832 63.776 91.232 36.96 130.688 105.28 60.864-65.504 37.184-146.016 12.832-188.16zM456.33568 275.648a9.632 9.632 0 0 0 13.184-3.552 62.08 62.08 0 0 0 6.752-47.232 62.432 62.432 0 0 0-29.504-37.792 61.92 61.92 0 0 0-47.456-6.624 61.696 61.696 0 0 0-37.536 29.408 9.6 9.6 0 0 0 3.488 13.12l91.072 52.672zM435.91968 303.264l-88.896-51.328a9.728 9.728 0 0 0-7.328-0.992 9.728 9.728 0 0 0-5.856 4.512L58.09568 733.088l105.568 60.992 275.776-477.664a9.6 9.6 0 0 0-3.52-13.152zM6.28768 822.752a9.408 9.408 0 0 0-1.056 6.272L0.01568 938.816a9.632 9.632 0 0 0 14.848 8.544L108.81568 887.04a9.6 9.6 0 0 0 3.552-4.192l24.672-42.688-105.6-60.96-25.152 43.552zM47.11968 654.496h13.408l88.768-153.888H47.11968a19.36 19.36 0 0 0-19.392 19.328v115.168a19.36 19.36 0 0 0 19.392 19.392zM944.87968 654.496a19.36 19.36 0 0 0 19.36-19.36v-115.168a19.328 19.328 0 0 0-19.36-19.328h-105.376l94.72 153.888h10.656zM375.56768 500.608l-88.768 153.888h433.664l-83.744-153.888z" fill="#1296db" p-id="3341"></path></svg>