<?xml version="1.0" standalone="no"?><!DOCTYPE svg PUBLIC "-//W3C//DTD SVG 1.1//EN" "http://www.w3.org/Graphics/SVG/1.1/DTD/svg11.dtd"><svg t="1737107233855" class="icon" viewBox="0 0 1024 1024" version="1.1" xmlns="http://www.w3.org/2000/svg" p-id="4549" xmlns:xlink="http://www.w3.org/1999/xlink" width="256" height="256"><path d="M613.5808 671.68256L362.72128 922.54208A136.86784 136.86784 0 0 1 265.3184 962.56l-157.06112-0.63488a46.44864 46.44864 0 0 1-46.1824-46.1824l-0.6144-157.06112a136.86784 136.86784 0 0 1 39.99744-97.40288l250.88-250.88-65.3312-65.29024a46.1824 46.1824 0 0 1 0-65.3312l10.752-10.73152a115.46624 115.46624 0 0 1 92.09856-33.34144l82.67776 7.51616a92.3648 92.3648 0 0 0 73.66656-26.68544l100.98688-100.98688a184.7296 184.7296 0 0 1 261.26336 261.26336l-100.98688 100.9664a92.3648 92.3648 0 0 0-26.68544 73.68704l7.51616 82.67776a115.46624 115.46624 0 0 1-33.34144 92.09856l-10.73152 10.752c-18.04288 18.0224-47.28832 18.0224-65.3312 0l-65.31072-65.3312zM473.088 696.32l82.57536-82.57536-145.408-145.408L182.272 696.32h290.816zM871.0144 164.5568c-51.22048-55.56224-134.32832-55.56224-185.5488 0a37.72416 37.72416 0 0 0 0 50.29888 31.00672 31.00672 0 0 0 46.3872 0c25.6-27.77088 67.1744-27.77088 92.7744 0 12.82048 13.90592 33.5872 13.90592 46.40768 0a37.72416 37.72416 0 0 0 0-50.29888z" p-id="4550" fill="#1296db"></path></svg>