<?xml version="1.0" standalone="no"?><!DOCTYPE svg PUBLIC "-//W3C//DTD SVG 1.1//EN" "http://www.w3.org/Graphics/SVG/1.1/DTD/svg11.dtd"><svg t="1738680026606" class="icon" viewBox="0 0 1024 1024" version="1.1" xmlns="http://www.w3.org/2000/svg" p-id="3732" xmlns:xlink="http://www.w3.org/1999/xlink" width="256" height="256"><path d="M883.319467 651.485867c-5.051733 0-10.103467 1.006933-14.6944 3.0208l-0.187734 0.085333h-0.170666l-356.181334 150.903467L155.835733 654.677333h-0.170666l-0.187734-0.085333a37.717333 37.717333 0 0 0-14.6944-3.0208C119.569067 651.5712 102.4 669.201067 102.4 690.926933c0 16.4352 9.8304 30.395733 23.688533 36.334934l370.858667 157.098666 0.3584 0.085334a37.3248 37.3248 0 0 0 29.3888 0l0.170667-0.085334c0.1024 0 0.1024-0.085333 0.187733-0.085333l370.858667-157.115733A39.389867 39.389867 0 0 0 921.6 690.824533c0.085333-21.725867-17.066667-39.338667-38.280533-39.338666z m0-170.257067c-7.2704-0.170667-14.6944 2.9184-14.6944 2.9184l-356.522667 151.005867L155.477333 484.1472s-9.472-2.901333-14.6944-2.901333c-21.213867 0-38.382933 17.5104-38.382933 39.253333a39.253333 39.253333 0 0 0 23.688533 36.232533l370.858667 157.013334c0.085333 0 0.085333 0.085333 0.170667 0.085333l0.1024 0.1024a37.376 37.376 0 0 0 29.3888 0l0.170666-0.1024c0.1024 0 0.1024 0 0.170667-0.085333l370.858667-157.013334A39.4752 39.4752 0 0 0 921.6 520.482133c0.085333-21.725867-17.066667-39.253333-38.280533-39.253333zM126.088533 386.474667l370.858667 157.115733c0.085333 0 0.085333 0 0.170667 0.085333l0.1024 0.085334c4.590933 1.928533 9.454933 2.9184 14.677333 2.9184 5.051733 0 10.018133-0.989867 14.6944-2.901334l0.187733-0.1024 0.170667-0.085333 370.858667-157.013333A39.594667 39.594667 0 0 0 921.6 350.3104c0-16.4352-9.8304-30.395733-23.688533-36.334933l-370.858667-157.184c-0.085333 0-0.085333 0-0.170667-0.1024l-0.187733-0.085334a37.3248 37.3248 0 0 0-29.3888 0l-0.085333 0.085334-371.131734 157.184A39.287467 39.287467 0 0 0 102.4 350.2592c0 16.3328 9.8304 30.293333 23.688533 36.232533z" fill="#1296db" p-id="3733"></path></svg>