<?xml version="1.0" standalone="no"?><!DOCTYPE svg PUBLIC "-//W3C//DTD SVG 1.1//EN" "http://www.w3.org/Graphics/SVG/1.1/DTD/svg11.dtd"><svg t="1733880566246" class="icon" viewBox="0 0 1024 1024" version="1.1" xmlns="http://www.w3.org/2000/svg" p-id="8002" xmlns:xlink="http://www.w3.org/1999/xlink" width="200" height="200"><path d="M828.952381 535.015619a73.142857 73.142857 0 0 1 73.142857 73.142857v222.159238a73.142857 73.142857 0 0 1-73.142857 73.142857h-222.134857a73.142857 73.142857 0 0 1-73.142857-73.142857v-222.159238a73.142857 73.142857 0 0 1 73.142857-73.142857H828.952381z m0 73.142857h-222.134857v222.159238H828.952381v-222.159238z m-498.468571-73.167238v157.159619L487.619048 692.126476v73.142857h-157.110858a73.142857 73.142857 0 0 1-73.142857-73.142857l-0.024381-157.110857 73.142858-0.024381zM414.47619 120.539429a73.142857 73.142857 0 0 1 73.142858 73.142857v222.159238a73.142857 73.142857 0 0 1-73.142858 73.142857H192.341333a73.142857 73.142857 0 0 1-73.142857-73.142857V193.682286a73.142857 73.142857 0 0 1 73.142857-73.142857H414.47619z m276.309334 138.166857a73.142857 73.142857 0 0 1 73.142857 73.142857v157.110857l-73.142857-0.024381v-157.086476h-157.135238v-73.142857h157.135238zM414.47619 193.682286H192.341333v222.159238H414.47619V193.682286z" p-id="8003" fill="#1296db"></path></svg>