<?xml version="1.0" standalone="no"?><!DOCTYPE svg PUBLIC "-//W3C//DTD SVG 1.1//EN" "http://www.w3.org/Graphics/SVG/1.1/DTD/svg11.dtd"><svg t="1735708663153" class="icon" viewBox="0 0 1024 1024" version="1.1" xmlns="http://www.w3.org/2000/svg" p-id="5113" xmlns:xlink="http://www.w3.org/1999/xlink" width="200" height="200"><path d="M650.666667 149.333333h-277.333334C320 149.333333 277.333333 192 277.333333 245.333333s42.666667 96 96 96h277.333334c53.333333 0 96-42.666667 96-96S704 149.333333 650.666667 149.333333z m0 128h-277.333334c-17.066667 0-32-14.933333-32-32s14.933333-32 32-32h277.333334c17.066667 0 32 14.933333 32 32s-14.933333 32-32 32zM650.666667 405.333333h-277.333334C320 405.333333 277.333333 448 277.333333 501.333333v21.333334c0 53.333333 42.666667 96 96 96h277.333334c53.333333 0 96-42.666667 96-96v-21.333334c0-53.333333-42.666667-96-96-96z m32 117.333334c0 17.066667-14.933333 32-32 32h-277.333334c-17.066667 0-32-14.933333-32-32v-21.333334c0-17.066667 14.933333-32 32-32h277.333334c17.066667 0 32 14.933333 32 32v21.333334zM650.666667 682.666667h-277.333334C320 682.666667 277.333333 725.333333 277.333333 778.666667s42.666667 96 96 96h277.333334c53.333333 0 96-42.666667 96-96S704 682.666667 650.666667 682.666667z m0 128h-277.333334c-17.066667 0-32-14.933333-32-32s14.933333-32 32-32h277.333334c17.066667 0 32 14.933333 32 32s-14.933333 32-32 32zM194.133333 245.333333c12.8-4.266667 19.2-17.066667 19.2-29.866666 0-21.333333-23.466667-38.4-42.666666-29.866667-74.666667 29.866667-128 102.4-128 187.733333s53.333333 157.866667 128 187.733334c21.333333 8.533333 42.666667-8.533333 42.666666-29.866667 0-12.8-8.533333-25.6-19.2-29.866667-51.2-21.333333-87.466667-70.4-87.466666-128s36.266667-106.666667 87.466666-128zM853.333333 462.933333c-21.333333-8.533333-42.666667 8.533333-42.666666 29.866667 0 12.8 8.533333 25.6 19.2 29.866667 51.2 21.333333 87.466667 70.4 87.466666 128s-36.266667 106.666667-87.466666 128c-12.8 4.266667-19.2 17.066667-19.2 29.866666 0 21.333333 23.466667 38.4 42.666666 29.866667 74.666667-29.866667 128-102.4 128-187.733333s-53.333333-157.866667-128-187.733334z" p-id="5114" fill="#1296db"></path></svg>