<?xml version="1.0" standalone="no"?><!DOCTYPE svg PUBLIC "-//W3C//DTD SVG 1.1//EN" "http://www.w3.org/Graphics/SVG/1.1/DTD/svg11.dtd"><svg t="1735708581019" class="icon" viewBox="0 0 1024 1024" version="1.1" xmlns="http://www.w3.org/2000/svg" p-id="3117" xmlns:xlink="http://www.w3.org/1999/xlink" width="200" height="200"><path d="M810.666667 890.88H213.333333a149.76 149.76 0 0 1-149.333333-149.333333v-42.666667a149.333333 149.333333 0 0 1 149.333333-149.333333h597.333334a149.333333 149.333333 0 0 1 149.333333 149.333333v42.666667a149.76 149.76 0 0 1-149.333333 149.333333z m-597.333334-298.666667a106.666667 106.666667 0 0 0-106.666666 106.666667v42.666667a107.093333 107.093333 0 0 0 106.666666 106.666666h597.333334a107.093333 107.093333 0 0 0 106.666666-106.666666v-42.666667a106.666667 106.666667 0 0 0-106.666666-106.666667zM896 474.88a24.746667 24.746667 0 0 1-7.68 0l-768-298.666667a21.333333 21.333333 0 1 1 15.36-39.68l768 298.666667a21.333333 21.333333 0 0 1 12.373333 27.733333 22.186667 22.186667 0 0 1-20.053333 11.946667z" p-id="3118" fill="#1296db"></path><path d="M512 741.546667H256a21.333333 21.333333 0 0 1-21.333333-21.333334 21.333333 21.333333 0 0 1 21.333333-21.333333h256a21.333333 21.333333 0 0 1 21.333333 21.333333 21.333333 21.333333 0 0 1-21.333333 21.333334z" p-id="3119" fill="#1296db"></path></svg>