<?xml version="1.0" standalone="no"?><!DOCTYPE svg PUBLIC "-//W3C//DTD SVG 1.1//EN" "http://www.w3.org/Graphics/SVG/1.1/DTD/svg11.dtd"><svg t="1734225353351" class="icon" viewBox="0 0 1024 1024" version="1.1" xmlns="http://www.w3.org/2000/svg" p-id="903" xmlns:xlink="http://www.w3.org/1999/xlink" width="200" height="200"><path d="M844.1856 137.6256l-306.8928-79.6672a101.5808 101.5808 0 0 0-50.7904 0L179.6096 137.6256A101.12 101.12 0 0 0 103.936 235.52v358.4c0 89.1392 51.2 173.824 152.0128 251.5968 78.336 60.416 167.7824 101.5808 214.1184 120.7296a100.7616 100.7616 0 0 0 84.48-3.3792c46.08-23.3984 134.6048-71.9872 212.5312-134.3488 101.376-81.0496 152.7296-160 152.7296-234.5984V235.52a101.0688 101.0688 0 0 0-75.6224-97.8944z m14.1824 456.2944c0 107.008-171.3152 232.448-331.7248 314.2144a39.5264 39.5264 0 0 1-33.0752 1.3312c-76.8-31.8464-328.192-148.48-328.192-315.5456V235.52a39.5264 39.5264 0 0 1 29.6448-38.2976L501.76 117.4528a39.168 39.168 0 0 1 19.8656 0l307.2 79.6672a39.5776 39.5776 0 0 1 29.5424 38.4z" fill="#1296db" p-id="904"></path><path d="M624.0768 581.12H542.72v-51.712a112.128 112.128 0 1 0-61.44 0v175.3088a30.72 30.72 0 0 0 61.44 0V642.56h81.4592a30.72 30.72 0 0 0 0-61.44zM461.312 421.5296a50.688 50.688 0 1 1 50.688 50.7392 50.7392 50.7392 0 0 1-50.688-50.7392z" fill="#1296db" p-id="905"></path></svg>